# xmcd
#
# Track frame offsets: 
#        150
#        5259
#        35600
#        48023
#        66204
#        85691
#        97781
#        109250
#        129690
#        141184
#        157186
#        176405
#        194260
#
# Disc length: 2923 seconds
#
# Revision: 0
# Processed by: cddbd v1.5.2PL0 Copyright (c) Steve Scherf et al.
# Submitted via: ExactAudioCopy v0.99pb4
#
DISCID=a50b690d
DTITLE=Les Frêres Cheminaud - L'jour pis la nuite
DYEAR=2004
DGENRE=Pop
TTITLE0=Radio Jazz
TTITLE1=La Légende de l'ouest
TTITLE2=Paye
TTITLE3=Le Cowboy
TTITLE4=Cht-un chialeux
TTITLE5=Venez pas me faire chier
TTITLE6=Albert
TTITLE7=Renaître
TTITLE8=Déconnes pas
TTITLE9=La Cabane
TTITLE10=La Solitude
TTITLE11=Maudit que j't'aime
TTITLE12=En 67
EXTD=
EXTT0=
EXTT1=
EXTT2=
EXTT3=
EXTT4=
EXTT5=
EXTT6=
EXTT7=
EXTT8=
EXTT9=
EXTT10=
EXTT11=
EXTT12=
PLAYORDER=
